<svg xmlns="http://www.w3.org/2000/svg" width="638" height="1018" viewBox="0 0 638 1018" font-family="'JetBrains Mono','DejaVu Sans Mono','SFMono-Regular',Menlo,Consolas,monospace" font-size="15" xmlns:c2pa="http://c2pa.org/manifest"><metadata><c2pa:manifest>AAAWgmp1bWIAAAAeanVtZGMycGEAEQAQgAAAqgA4m3EDYzJwYQAAABZcanVtYgAAAEdqdW1kYzJtYQARABCAAACqADibcQN1cm46YzJwYTplMjcwZDgwMy1iODgxLTQyM2UtODUzOC02NjkwZGFiYjNmYjkAAAADl2p1bWIAAAApanVtZGMyYXMAEQAQgAAAqgA4m3EDYzJwYS5hc3NlcnRpb25zAAAAALxqdW1iAAAARGp1bWRjYm9yABEAEIAAAKoAOJtxE2MycGEuaW5ncmVkaWVudC52MwAAAAAYYzJzaFIOatdTrIN/txWZdhjczCMAAABwY2JvcqNpZGM6Zm9ybWF0bWltYWdlL3N2Zyt4bWxqaW5zdGFuY2VJRHgseG1wOmlpZDoxOTMyNThhNS04MGIwLTQ3ZTUtYmRiNy01MzAwNDhhNDc0MjFscmVsYXRpb25zaGlwaHBhcmVudE9mAAAB4mp1bWIAAABBanVtZGNib3IAEQAQgAAAqgA4m3ETYzJwYS5hY3Rpb25zLnYyAAAAABhjMnNoYSWlMZPB1FwRSr8PvSiYOAAAAZljYm9yomdhY3Rpb25zgqJmYWN0aW9ua2MycGEub3BlbmVkanBhcmFtZXRlcnOha2luZ3JlZGllbnRzgaJjdXJseC1zZWxmI2p1bWJmPWMycGEuYXNzZXJ0aW9ucy9jMnBhLmluZ3JlZGllbnQudjNkaGFzaFggonYDPdMoZz0jFEz8jcoEcyk7GWJJK+c/lwsG6YSH7X+kZmFjdGlvbngdY29tLmFudGhyb3BpYy5jbGF1ZGUucHJvdmlkZWRqcGFyYW1ldGVyc6F4H2NvbS5hbnRocm9waWMub3JpZ2luLWNvbmZpZGVuY2VndW5rbm93bmtkZXNjcmlwdGlvbnhmQ2xhdWRlIHByb3ZpZGVkIHRoaXMgZmlsZSBhdCB0aGUgcmVxdWVzdCBvZiBhIHVzZXIgYW5kIG1heSBoYXZlIGNyZWF0ZWQgb3IgbW9kaWZpZWQgdGhlIGZpbGUgY29udGVudHMubXNvZnR3YXJlQWdlbnShZG5hbWVmQ2xhdWRlcmFsbEFjdGlvbnNJbmNsdWRlZPUAAADIanVtYgAAAEBqdW1kY2JvcgARABCAAACqADibcRNjMnBhLmhhc2guZGF0YQAAAAAYYzJzaHDrzba/WANpuLSZ+9UjzbMAAACAY2JvcqVjYWxnZnNoYTI1NmNwYWRMAAAAAAAAAAAAAAAAZGhhc2hYIDUCr2gVEYwdp4RoFJmll+VzrxlLet8fviEijaJjX7jSZG5hbWVuanVtYmYgbWFuaWZlc3RqZXhjbHVzaW9uc4GiZXN0YXJ0GQEDZmxlbmd0aBkeBAAAAj5qdW1iAAAAJ2p1bWRjMmNsABEAEIAAAKoAOJtxA2MycGEuY2xhaW0udjIAAAACD2Nib3KlY2FsZ2ZzaGEyNTZpc2lnbmF0dXJleE1zZWxmI2p1bWJmPS9jMnBhL3VybjpjMnBhOmUyNzBkODAzLWI4ODEtNDIzZS04NTM4LTY2OTBkYWJiM2ZiOS9jMnBhLnNpZ25hdHVyZWppbnN0YW5jZUlEeCx4bXA6aWlkOjNiMTFlYjE3LWY4OGYtNDhkYy1hOGRiLThmNDE4N2M4ZTJiZXJjcmVhdGVkX2Fzc2VydGlvbnODomN1cmx4LXNlbGYjanVtYmY9YzJwYS5hc3NlcnRpb25zL2MycGEuaW5ncmVkaWVudC52M2RoYXNoWCCidgM90yhnPSMUTPyNygRzKTsZYkkr5z+XCwbphIftf6JjdXJseCpzZWxmI2p1bWJmPWMycGEuYXNzZXJ0aW9ucy9jMnBhLmFjdGlvbnMudjJkaGFzaFgg0nZR+O9pOMUE1n/0JJZDYAKZOSqIuactKm6/Q7PU8pOiY3VybHgpc2VsZiNqdW1iZj1jMnBhLmFzc2VydGlvbnMvYzJwYS5oYXNoLmRhdGFkaGFzaFgg6C3wQPErlm05dT6OF7AKGRX+DRf0tMB4F82s5J8ld6t0Y2xhaW1fZ2VuZXJhdG9yX2luZm+jZG5hbWVvQW50aHJvcGljIEZpbGVzZ3ZlcnNpb25lMS4wLjBrc3BlY1ZlcnNpb25lMi40LjAAABA4anVtYgAAAChqdW1kYzJjcwARABCAAACqADibcQNjMnBhLnNpZ25hdHVyZQAAABAIY2JvctKEWQISogEmGCFZAgowggIGMIIBjaADAgECAhRA5aAK7sI50L64g/oGQgU9Z1UTADAKBggqhkjOPQQDAzBJMRcwFQYDVQQKEw5BbnRocm9waWMsIFBCQzEuMCwGA1UEAxMlQW50aHJvcGljIENvbnRlbnQgQ3JlZGVudGlhbHMgUm9vdCBDQTAeFw0yNjA4MDcxODQzNTZaFw0yODA4MDYxOTQzNTZaMEQxFzAVBgNVBAoTDkFudGhyb3BpYywgUEJDMSkwJwYDVQQDEyBBbnRocm9waWMgQ2xhdWRlIENvbnRlbnQgU2lnbmluZzBZMBMGByqGSM49AgEGCCqGSM49AwEHA0IABJh6CmvLUBgFFNU0vUKlOVtE6djd17L5SuwX0LemFisBM3dkd/3cyjxFA3Qo5S46fX0/ihY0VZ7mfb9KF703t5OjWDBWMA4GA1UdDwEB/wQEAwIHgDAVBgNVHSUEDjAMBgorBgEEAYPoXgIBMAwGA1UdEwEB/wQCMAAwHwYDVR0jBBgwFoAUzlHiBIFOZFsj+OPEz5o+nMHXXMIwCgYIKoZIzj0EAwMDZwAwZAIwMXMdFJ4BetLLVY7ORuE9noqbbAZOZn/aArXyTwFAZfKrPzxF2vPoJNf1+UCdg1XGAjBwX1zd9WGqYkqmL5SFqw1QySjr1zJfpJM9+1rdDwSPLMOPOjKuiXjoU/pUUeG9RwmhY3BhZFkNngAAAAAAAAAAAAAAAAAAAAAAAAAAAAAAAAAAAAAAAAAAAAAAAAAAAAAAAAAAAAAAAAAAAAAAAAAAAAAAAAAAAAAAAAAAAAAAAAAAAAAAAAAAAAAAAAAAAAAAAAAAAAAAAAAAAAAAAAAAAAAAAAAAAAAAAAAAAAAAAAAAAAAAAAAAAAAAAAAAAAAAAAAAAAAAAAAAAAAAAAAAAAAAAAAAAAAAAAAAAAAAAAAAAAAAAAAAAAAAAAAAAAAAAAAAAAAAAAAAAAAAAAAAAAAAAAAAAAAAAAAAAAAAAAAAAAAAAAAAAAAAAAAAAAAAAAAAAAAAAAAAAAAAAAAAAAAAAAAAAAAAAAAAAAAAAAAAAAAAAAAAAAAAAAAAAAAAAAAAAAAAAAAAAAAAAAAAAAAAAAAAAAAAAAAAAAAAAAAAAAAAAAAAAAAAAAAAAAAAAAAAAAAAAAAAAAAAAAAAAAAAAAAAAAAAAAAAAAAAAAAAAAAAAAAAAAAAAAAAAAAAAAAAAAAAAAAAAAAAAAAAAAAAAAAAAAAAAAAAAAAAAAAAAAAAAAAAAAAAAAAAAAAAAAAAAAAAAAAAAAAAAAAAAAAAAAAAAAAAAAAAAAAAAAAAAAAAAAAAAAAAAAAAAAAAAAAAAAAAAAAAAAAAAAAAAAAAAAAAAAAAAAAAAAAAAAAAAAAAAAAAAAAAAAAAAAAAAAAAAAAAAAAAAAAAAAAAAAAAAAAAAAAAAAAAAAAAAAAAAAAAAAAAAAAAAAAAAAAAAAAAAAAAAAAAAAAAAAAAAAAAAAAAAAAAAAAAAAAAAAAAAAAAAAAAAAAAAAAAAAAAAAAAAAAAAAAAAAAAAAAAAAAAAAAAAAAAAAAAAAAAAAAAAAAAAAAAAAAAAAAAAAAAAAAAAAAAAAAAAAAAAAAAAAAAAAAAAAAAAAAAAAAAAAAAAAAAAAAAAAAAAAAAAAAAAAAAAAAAAAAAAAAAAAAAAAAAAAAAAAAAAAAAAAAAAAAAAAAAAAAAAAAAAAAAAAAAAAAAAAAAAAAAAAAAAAAAAAAAAAAAAAAAAAAAAAAAAAAAAAAAAAAAAAAAAAAAAAAAAAAAAAAAAAAAAAAAAAAAAAAAAAAAAAAAAAAAAAAAAAAAAAAAAAAAAAAAAAAAAAAAAAAAAAAAAAAAAAAAAAAAAAAAAAAAAAAAAAAAAAAAAAAAAAAAAAAAAAAAAAAAAAAAAAAAAAAAAAAAAAAAAAAAAAAAAAAAAAAAAAAAAAAAAAAAAAAAAAAAAAAAAAAAAAAAAAAAAAAAAAAAAAAAAAAAAAAAAAAAAAAAAAAAAAAAAAAAAAAAAAAAAAAAAAAAAAAAAAAAAAAAAAAAAAAAAAAAAAAAAAAAAAAAAAAAAAAAAAAAAAAAAAAAAAAAAAAAAAAAAAAAAAAAAAAAAAAAAAAAAAAAAAAAAAAAAAAAAAAAAAAAAAAAAAAAAAAAAAAAAAAAAAAAAAAAAAAAAAAAAAAAAAAAAAAAAAAAAAAAAAAAAAAAAAAAAAAAAAAAAAAAAAAAAAAAAAAAAAAAAAAAAAAAAAAAAAAAAAAAAAAAAAAAAAAAAAAAAAAAAAAAAAAAAAAAAAAAAAAAAAAAAAAAAAAAAAAAAAAAAAAAAAAAAAAAAAAAAAAAAAAAAAAAAAAAAAAAAAAAAAAAAAAAAAAAAAAAAAAAAAAAAAAAAAAAAAAAAAAAAAAAAAAAAAAAAAAAAAAAAAAAAAAAAAAAAAAAAAAAAAAAAAAAAAAAAAAAAAAAAAAAAAAAAAAAAAAAAAAAAAAAAAAAAAAAAAAAAAAAAAAAAAAAAAAAAAAAAAAAAAAAAAAAAAAAAAAAAAAAAAAAAAAAAAAAAAAAAAAAAAAAAAAAAAAAAAAAAAAAAAAAAAAAAAAAAAAAAAAAAAAAAAAAAAAAAAAAAAAAAAAAAAAAAAAAAAAAAAAAAAAAAAAAAAAAAAAAAAAAAAAAAAAAAAAAAAAAAAAAAAAAAAAAAAAAAAAAAAAAAAAAAAAAAAAAAAAAAAAAAAAAAAAAAAAAAAAAAAAAAAAAAAAAAAAAAAAAAAAAAAAAAAAAAAAAAAAAAAAAAAAAAAAAAAAAAAAAAAAAAAAAAAAAAAAAAAAAAAAAAAAAAAAAAAAAAAAAAAAAAAAAAAAAAAAAAAAAAAAAAAAAAAAAAAAAAAAAAAAAAAAAAAAAAAAAAAAAAAAAAAAAAAAAAAAAAAAAAAAAAAAAAAAAAAAAAAAAAAAAAAAAAAAAAAAAAAAAAAAAAAAAAAAAAAAAAAAAAAAAAAAAAAAAAAAAAAAAAAAAAAAAAAAAAAAAAAAAAAAAAAAAAAAAAAAAAAAAAAAAAAAAAAAAAAAAAAAAAAAAAAAAAAAAAAAAAAAAAAAAAAAAAAAAAAAAAAAAAAAAAAAAAAAAAAAAAAAAAAAAAAAAAAAAAAAAAAAAAAAAAAAAAAAAAAAAAAAAAAAAAAAAAAAAAAAAAAAAAAAAAAAAAAAAAAAAAAAAAAAAAAAAAAAAAAAAAAAAAAAAAAAAAAAAAAAAAAAAAAAAAAAAAAAAAAAAAAAAAAAAAAAAAAAAAAAAAAAAAAAAAAAAAAAAAAAAAAAAAAAAAAAAAAAAAAAAAAAAAAAAAAAAAAAAAAAAAAAAAAAAAAAAAAAAAAAAAAAAAAAAAAAAAAAAAAAAAAAAAAAAAAAAAAAAAAAAAAAAAAAAAAAAAAAAAAAAAAAAAAAAAAAAAAAAAAAAAAAAAAAAAAAAAAAAAAAAAAAAAAAAAAAAAAAAAAAAAAAAAAAAAAAAAAAAAAAAAAAAAAAAAAAAAAAAAAAAAAAAAAAAAAAAAAAAAAAAAAAAAAAAAAAAAAAAAAAAAAAAAAAAAAAAAAAAAAAAAAAAAAAAAAAAAAAAAAAAAAAAAAAAAAAAAAAAAAAAAAAAAAAAAAAAAAAAAAAAAAAAAAAAAAAAAAAAAAAAAAAAAAAAAAAAAAAAAAAAAAAAAAAAAAAAAAAAAAAAAAAAAAAAAAAAAAAAAAAAAAAAAAAAAAAAAAAAAAAAAAAAAAAAAAAAAAAAAAAAAAAAAAAAAAAAAAAAAAAAAAAAAAAAAAAAAAAAAAAAAAAAAAAAAAAAAAAAAAAAAAAAAAAAAAAAAAAAAAAAAAAAAAAAAAAAAAAAAAAAAAAAAAAAAAAAAAAAAAAAAAAAAAAAAAAAAAAAAAAAAAAAAAAAAAAAAAAAAAAAAAAAAAAAAAAAAAAAAAAAAAAAAAAAAAAAAAAAAAAAAAAAAAAAAAAAAAAAAAAAAAAAAAAAAAAAAAAAAAAAAAAAAAAAAAAAAAAAAAAAAAAAAAAAAAAAAAAAAAAAAAAAAAAAAAAAAAAAAAAAAAAAAAAAAAAAAAAAAAAAAAAAAAAAAAAAAAAAAAAAAAAAAAAAAAAAAAAAAAAAAAAAAAAAAAAAAAAAAAAAAAAAAAAAAAAAAAAAAAAAAAAAAAAAAAAAAAAAAAAAAAAAAAAAAAAAAAAAAAAAAAAAAAAAAAAAAAAAAAAAAAAAAAAAAAAAAAAAAAAAAAAAAAAAAAAAAAAAAAAAAAAAAAAAAAAAAAAAAAAAAAAAAAAAAAAAAAAAAAAAAAAAAAAAAAAAAAAAAAAAAAAAAAAAAAAAAAAAAAAAAAAAAAAAAAAAAAAAAAAAAAAAAAAAAAAAAAAAAAAAAAAAAAAAAAAAAAAAAAAAAAAAAAAAAAAAAAAAAAAAAAAAAAAAAAAAAAAAAAAAAAAAAAAAAAAAAAAAAAAAAAAAAAAAAAAAAAAAAAAAAAAAAAAAAAAAAAAAAAAAAAAAAAAAAAAAAAAAAAAAAAAAAAAAAAAAAAAAAAAAAAAAAAAAAAAAAAAAAAAAAAAAAAAAAAAAAAAAAAAAAAAAAAAAAAAAAAAAAAAAAAAAAAAAAAAAAAAAAAAAAAAAAAAAAAAAAAAAAAAAAAAAAAAAAAAAAAAAAAAAAAAAAAAAAAAAAAAAAAAAAAAAAAAAAAAAAAAAAAAAAAAAAAAAAAAAAAAAAAAAAAAAAAAAAAAAAAAAAAAAAAAAAAAAAAAAAAAAAAAAAAAAAAAAAAAAAAAAAAAAAAAAAAAAAAAAAAAAAAAAAAAAAAAAAAAAAAAAAAAAAAAAAAAAAAAAAAAAAAAAAAAAAAAAAAAAAAAAAAAAAAAAAAAAAAAAAAAAAAAAAAAAAAAAAAAAAAAAAAAAAAAAAAAAAAAAAAAAAAAAAAAAAAAAAAAAAAAAAAAAAAAAAAAAAAAAAAAAAAAAAAAAAAAAAAAAAAAAAAAAAAAAAAAAAAAAAAAAAAAAAAAAAAAAAAAAAAAAAAAAAAAAAAAAAAAAAAAAAAAAAAAAAAAAAAAAAAAAAAAAAAAAAAAAAAAAAAAAAAAAAAAAAAAAAAAAAAAAAAAAAAAAAAAAAAAAAAAAAAAAAAAAAAAAAAAAAAAAAAAAAAAAAAAAAAAAAAAAAAAAAAAAAAAAAAAAAAAAAAAAAAAAAAAAAAAAAAAAAAAAAAAAAAAAAAAAAAAAAAAAAAAAAAAAAAAAAAAAAAAAAAAAAAAAAAAAAAAAAAAAAAAAAAAAAAAAAAAAAAAAAAAAAAAAAAAAAAAAAAAAAAAAAAAAAAAAAAAAAAAAAAAAAAAAAAAAAAAAAAAAAAAAAAAAAAAAAAAAAPZYQA1WYIvx7hCpkXSATvF307NJVAr1a81HjDzG+oFFloB2ZLqu9mbtnccwYj5+xMU3LwQhjRjywo76roIMhFDgnGU=</c2pa:manifest></metadata>
<rect width="638" height="1018" rx="12" fill="#0d1117" stroke="#30363d" stroke-width="1"/>
<circle cx="46" cy="34" r="5" fill="#ffdf5d"/><circle cx="66" cy="34" r="5" fill="#d29922"/><circle cx="86" cy="34" r="5" fill="#8a6a1a"/>
<text x="319.0" y="86" text-anchor="middle" font-size="13" letter-spacing="5" fill="#ffe9a8">Hi, MY NAME IS</text>
<line x1="279.0" y1="108" x2="359.0" y2="108" stroke="#d29922" stroke-width="1.5"/>
<rect x="114.5" y="138.0" width="9.5" height="9.5" rx="1.5" fill="#f2cc60"/>
<rect x="125.5" y="138.0" width="9.5" height="9.5" rx="1.5" fill="#f2cc60"/>
<rect x="136.5" y="138.0" width="9.5" height="9.5" rx="1.5" fill="#f2cc60"/>
<rect x="103.5" y="149.0" width="9.5" height="9.5" rx="1.5" fill="#f2cc60"/>
<rect x="147.5" y="149.0" width="9.5" height="9.5" rx="1.5" fill="#f2cc60"/>
<rect x="103.5" y="160.0" width="9.5" height="9.5" rx="1.5" fill="#f2cc60"/>
<rect x="114.5" y="160.0" width="9.5" height="9.5" rx="1.5" fill="#f2cc60"/>
<rect x="125.5" y="160.0" width="9.5" height="9.5" rx="1.5" fill="#f2cc60"/>
<rect x="136.5" y="160.0" width="9.5" height="9.5" rx="1.5" fill="#f2cc60"/>
<rect x="147.5" y="160.0" width="9.5" height="9.5" rx="1.5" fill="#f2cc60"/>
<rect x="103.5" y="171.0" width="9.5" height="9.5" rx="1.5" fill="#f2cc60"/>
<rect x="147.5" y="171.0" width="9.5" height="9.5" rx="1.5" fill="#f2cc60"/>
<rect x="103.5" y="182.0" width="9.5" height="9.5" rx="1.5" fill="#f2cc60"/>
<rect x="147.5" y="182.0" width="9.5" height="9.5" rx="1.5" fill="#f2cc60"/>
<rect x="190.0" y="138.0" width="9.5" height="9.5" rx="1.5" fill="#f2cc60"/>
<rect x="201.0" y="138.0" width="9.5" height="9.5" rx="1.5" fill="#f2cc60"/>
<rect x="212.0" y="138.0" width="9.5" height="9.5" rx="1.5" fill="#f2cc60"/>
<rect x="223.0" y="138.0" width="9.5" height="9.5" rx="1.5" fill="#f2cc60"/>
<rect x="179.0" y="149.0" width="9.5" height="9.5" rx="1.5" fill="#f2cc60"/>
<rect x="190.0" y="160.0" width="9.5" height="9.5" rx="1.5" fill="#f2cc60"/>
<rect x="201.0" y="160.0" width="9.5" height="9.5" rx="1.5" fill="#f2cc60"/>
<rect x="212.0" y="160.0" width="9.5" height="9.5" rx="1.5" fill="#f2cc60"/>
<rect x="223.0" y="171.0" width="9.5" height="9.5" rx="1.5" fill="#f2cc60"/>
<rect x="179.0" y="182.0" width="9.5" height="9.5" rx="1.5" fill="#f2cc60"/>
<rect x="190.0" y="182.0" width="9.5" height="9.5" rx="1.5" fill="#f2cc60"/>
<rect x="201.0" y="182.0" width="9.5" height="9.5" rx="1.5" fill="#f2cc60"/>
<rect x="212.0" y="182.0" width="9.5" height="9.5" rx="1.5" fill="#f2cc60"/>
<rect x="254.5" y="138.0" width="9.5" height="9.5" rx="1.5" fill="#f2cc60"/>
<rect x="298.5" y="138.0" width="9.5" height="9.5" rx="1.5" fill="#f2cc60"/>
<rect x="254.5" y="149.0" width="9.5" height="9.5" rx="1.5" fill="#f2cc60"/>
<rect x="298.5" y="149.0" width="9.5" height="9.5" rx="1.5" fill="#f2cc60"/>
<rect x="254.5" y="160.0" width="9.5" height="9.5" rx="1.5" fill="#f2cc60"/>
<rect x="265.5" y="160.0" width="9.5" height="9.5" rx="1.5" fill="#f2cc60"/>
<rect x="276.5" y="160.0" width="9.5" height="9.5" rx="1.5" fill="#f2cc60"/>
<rect x="287.5" y="160.0" width="9.5" height="9.5" rx="1.5" fill="#f2cc60"/>
<rect x="298.5" y="160.0" width="9.5" height="9.5" rx="1.5" fill="#f2cc60"/>
<rect x="254.5" y="171.0" width="9.5" height="9.5" rx="1.5" fill="#f2cc60"/>
<rect x="298.5" y="171.0" width="9.5" height="9.5" rx="1.5" fill="#f2cc60"/>
<rect x="254.5" y="182.0" width="9.5" height="9.5" rx="1.5" fill="#f2cc60"/>
<rect x="298.5" y="182.0" width="9.5" height="9.5" rx="1.5" fill="#f2cc60"/>
<rect x="330.0" y="138.0" width="9.5" height="9.5" rx="1.5" fill="#f2cc60"/>
<rect x="341.0" y="138.0" width="9.5" height="9.5" rx="1.5" fill="#f2cc60"/>
<rect x="352.0" y="138.0" width="9.5" height="9.5" rx="1.5" fill="#f2cc60"/>
<rect x="363.0" y="138.0" width="9.5" height="9.5" rx="1.5" fill="#f2cc60"/>
<rect x="374.0" y="138.0" width="9.5" height="9.5" rx="1.5" fill="#f2cc60"/>
<rect x="352.0" y="149.0" width="9.5" height="9.5" rx="1.5" fill="#f2cc60"/>
<rect x="352.0" y="160.0" width="9.5" height="9.5" rx="1.5" fill="#f2cc60"/>
<rect x="352.0" y="171.0" width="9.5" height="9.5" rx="1.5" fill="#f2cc60"/>
<rect x="330.0" y="182.0" width="9.5" height="9.5" rx="1.5" fill="#f2cc60"/>
<rect x="341.0" y="182.0" width="9.5" height="9.5" rx="1.5" fill="#f2cc60"/>
<rect x="352.0" y="182.0" width="9.5" height="9.5" rx="1.5" fill="#f2cc60"/>
<rect x="363.0" y="182.0" width="9.5" height="9.5" rx="1.5" fill="#f2cc60"/>
<rect x="374.0" y="182.0" width="9.5" height="9.5" rx="1.5" fill="#f2cc60"/>
<rect x="416.5" y="138.0" width="9.5" height="9.5" rx="1.5" fill="#f2cc60"/>
<rect x="427.5" y="138.0" width="9.5" height="9.5" rx="1.5" fill="#f2cc60"/>
<rect x="438.5" y="138.0" width="9.5" height="9.5" rx="1.5" fill="#f2cc60"/>
<rect x="449.5" y="138.0" width="9.5" height="9.5" rx="1.5" fill="#f2cc60"/>
<rect x="405.5" y="149.0" width="9.5" height="9.5" rx="1.5" fill="#f2cc60"/>
<rect x="416.5" y="160.0" width="9.5" height="9.5" rx="1.5" fill="#f2cc60"/>
<rect x="427.5" y="160.0" width="9.5" height="9.5" rx="1.5" fill="#f2cc60"/>
<rect x="438.5" y="160.0" width="9.5" height="9.5" rx="1.5" fill="#f2cc60"/>
<rect x="449.5" y="171.0" width="9.5" height="9.5" rx="1.5" fill="#f2cc60"/>
<rect x="405.5" y="182.0" width="9.5" height="9.5" rx="1.5" fill="#f2cc60"/>
<rect x="416.5" y="182.0" width="9.5" height="9.5" rx="1.5" fill="#f2cc60"/>
<rect x="427.5" y="182.0" width="9.5" height="9.5" rx="1.5" fill="#f2cc60"/>
<rect x="438.5" y="182.0" width="9.5" height="9.5" rx="1.5" fill="#f2cc60"/>
<rect x="481.0" y="138.0" width="9.5" height="9.5" rx="1.5" fill="#f2cc60"/>
<rect x="525.0" y="138.0" width="9.5" height="9.5" rx="1.5" fill="#f2cc60"/>
<rect x="481.0" y="149.0" width="9.5" height="9.5" rx="1.5" fill="#f2cc60"/>
<rect x="525.0" y="149.0" width="9.5" height="9.5" rx="1.5" fill="#f2cc60"/>
<rect x="481.0" y="160.0" width="9.5" height="9.5" rx="1.5" fill="#f2cc60"/>
<rect x="492.0" y="160.0" width="9.5" height="9.5" rx="1.5" fill="#f2cc60"/>
<rect x="503.0" y="160.0" width="9.5" height="9.5" rx="1.5" fill="#f2cc60"/>
<rect x="514.0" y="160.0" width="9.5" height="9.5" rx="1.5" fill="#f2cc60"/>
<rect x="525.0" y="160.0" width="9.5" height="9.5" rx="1.5" fill="#f2cc60"/>
<rect x="481.0" y="171.0" width="9.5" height="9.5" rx="1.5" fill="#f2cc60"/>
<rect x="525.0" y="171.0" width="9.5" height="9.5" rx="1.5" fill="#f2cc60"/>
<rect x="481.0" y="182.0" width="9.5" height="9.5" rx="1.5" fill="#f2cc60"/>
<rect x="525.0" y="182.0" width="9.5" height="9.5" rx="1.5" fill="#f2cc60"/>
<rect x="103.5" y="215.0" width="9.5" height="9.5" rx="1.5" fill="#f2cc60"/>
<rect x="147.5" y="215.0" width="9.5" height="9.5" rx="1.5" fill="#f2cc60"/>
<rect x="103.5" y="226.0" width="9.5" height="9.5" rx="1.5" fill="#f2cc60"/>
<rect x="114.5" y="226.0" width="9.5" height="9.5" rx="1.5" fill="#f2cc60"/>
<rect x="136.5" y="226.0" width="9.5" height="9.5" rx="1.5" fill="#f2cc60"/>
<rect x="147.5" y="226.0" width="9.5" height="9.5" rx="1.5" fill="#f2cc60"/>
<rect x="103.5" y="237.0" width="9.5" height="9.5" rx="1.5" fill="#f2cc60"/>
<rect x="125.5" y="237.0" width="9.5" height="9.5" rx="1.5" fill="#f2cc60"/>
<rect x="147.5" y="237.0" width="9.5" height="9.5" rx="1.5" fill="#f2cc60"/>
<rect x="103.5" y="248.0" width="9.5" height="9.5" rx="1.5" fill="#f2cc60"/>
<rect x="147.5" y="248.0" width="9.5" height="9.5" rx="1.5" fill="#f2cc60"/>
<rect x="103.5" y="259.0" width="9.5" height="9.5" rx="1.5" fill="#f2cc60"/>
<rect x="147.5" y="259.0" width="9.5" height="9.5" rx="1.5" fill="#f2cc60"/>
<rect x="179.0" y="215.0" width="9.5" height="9.5" rx="1.5" fill="#f2cc60"/>
<rect x="190.0" y="215.0" width="9.5" height="9.5" rx="1.5" fill="#f2cc60"/>
<rect x="201.0" y="215.0" width="9.5" height="9.5" rx="1.5" fill="#f2cc60"/>
<rect x="212.0" y="215.0" width="9.5" height="9.5" rx="1.5" fill="#f2cc60"/>
<rect x="223.0" y="215.0" width="9.5" height="9.5" rx="1.5" fill="#f2cc60"/>
<rect x="201.0" y="226.0" width="9.5" height="9.5" rx="1.5" fill="#f2cc60"/>
<rect x="201.0" y="237.0" width="9.5" height="9.5" rx="1.5" fill="#f2cc60"/>
<rect x="201.0" y="248.0" width="9.5" height="9.5" rx="1.5" fill="#f2cc60"/>
<rect x="179.0" y="259.0" width="9.5" height="9.5" rx="1.5" fill="#f2cc60"/>
<rect x="190.0" y="259.0" width="9.5" height="9.5" rx="1.5" fill="#f2cc60"/>
<rect x="201.0" y="259.0" width="9.5" height="9.5" rx="1.5" fill="#f2cc60"/>
<rect x="212.0" y="259.0" width="9.5" height="9.5" rx="1.5" fill="#f2cc60"/>
<rect x="223.0" y="259.0" width="9.5" height="9.5" rx="1.5" fill="#f2cc60"/>
<rect x="265.5" y="215.0" width="9.5" height="9.5" rx="1.5" fill="#f2cc60"/>
<rect x="276.5" y="215.0" width="9.5" height="9.5" rx="1.5" fill="#f2cc60"/>
<rect x="287.5" y="215.0" width="9.5" height="9.5" rx="1.5" fill="#f2cc60"/>
<rect x="298.5" y="215.0" width="9.5" height="9.5" rx="1.5" fill="#f2cc60"/>
<rect x="254.5" y="226.0" width="9.5" height="9.5" rx="1.5" fill="#f2cc60"/>
<rect x="265.5" y="237.0" width="9.5" height="9.5" rx="1.5" fill="#f2cc60"/>
<rect x="276.5" y="237.0" width="9.5" height="9.5" rx="1.5" fill="#f2cc60"/>
<rect x="287.5" y="237.0" width="9.5" height="9.5" rx="1.5" fill="#f2cc60"/>
<rect x="298.5" y="248.0" width="9.5" height="9.5" rx="1.5" fill="#f2cc60"/>
<rect x="254.5" y="259.0" width="9.5" height="9.5" rx="1.5" fill="#f2cc60"/>
<rect x="265.5" y="259.0" width="9.5" height="9.5" rx="1.5" fill="#f2cc60"/>
<rect x="276.5" y="259.0" width="9.5" height="9.5" rx="1.5" fill="#f2cc60"/>
<rect x="287.5" y="259.0" width="9.5" height="9.5" rx="1.5" fill="#f2cc60"/>
<rect x="330.0" y="215.0" width="9.5" height="9.5" rx="1.5" fill="#f2cc60"/>
<rect x="374.0" y="215.0" width="9.5" height="9.5" rx="1.5" fill="#f2cc60"/>
<rect x="330.0" y="226.0" width="9.5" height="9.5" rx="1.5" fill="#f2cc60"/>
<rect x="374.0" y="226.0" width="9.5" height="9.5" rx="1.5" fill="#f2cc60"/>
<rect x="330.0" y="237.0" width="9.5" height="9.5" rx="1.5" fill="#f2cc60"/>
<rect x="341.0" y="237.0" width="9.5" height="9.5" rx="1.5" fill="#f2cc60"/>
<rect x="352.0" y="237.0" width="9.5" height="9.5" rx="1.5" fill="#f2cc60"/>
<rect x="363.0" y="237.0" width="9.5" height="9.5" rx="1.5" fill="#f2cc60"/>
<rect x="374.0" y="237.0" width="9.5" height="9.5" rx="1.5" fill="#f2cc60"/>
<rect x="330.0" y="248.0" width="9.5" height="9.5" rx="1.5" fill="#f2cc60"/>
<rect x="374.0" y="248.0" width="9.5" height="9.5" rx="1.5" fill="#f2cc60"/>
<rect x="330.0" y="259.0" width="9.5" height="9.5" rx="1.5" fill="#f2cc60"/>
<rect x="374.0" y="259.0" width="9.5" height="9.5" rx="1.5" fill="#f2cc60"/>
<rect x="405.5" y="215.0" width="9.5" height="9.5" rx="1.5" fill="#f2cc60"/>
<rect x="416.5" y="215.0" width="9.5" height="9.5" rx="1.5" fill="#f2cc60"/>
<rect x="427.5" y="215.0" width="9.5" height="9.5" rx="1.5" fill="#f2cc60"/>
<rect x="438.5" y="215.0" width="9.5" height="9.5" rx="1.5" fill="#f2cc60"/>
<rect x="405.5" y="226.0" width="9.5" height="9.5" rx="1.5" fill="#f2cc60"/>
<rect x="449.5" y="226.0" width="9.5" height="9.5" rx="1.5" fill="#f2cc60"/>
<rect x="405.5" y="237.0" width="9.5" height="9.5" rx="1.5" fill="#f2cc60"/>
<rect x="416.5" y="237.0" width="9.5" height="9.5" rx="1.5" fill="#f2cc60"/>
<rect x="427.5" y="237.0" width="9.5" height="9.5" rx="1.5" fill="#f2cc60"/>
<rect x="438.5" y="237.0" width="9.5" height="9.5" rx="1.5" fill="#f2cc60"/>
<rect x="405.5" y="248.0" width="9.5" height="9.5" rx="1.5" fill="#f2cc60"/>
<rect x="438.5" y="248.0" width="9.5" height="9.5" rx="1.5" fill="#f2cc60"/>
<rect x="405.5" y="259.0" width="9.5" height="9.5" rx="1.5" fill="#f2cc60"/>
<rect x="449.5" y="259.0" width="9.5" height="9.5" rx="1.5" fill="#f2cc60"/>
<rect x="492.0" y="215.0" width="9.5" height="9.5" rx="1.5" fill="#f2cc60"/>
<rect x="503.0" y="215.0" width="9.5" height="9.5" rx="1.5" fill="#f2cc60"/>
<rect x="514.0" y="215.0" width="9.5" height="9.5" rx="1.5" fill="#f2cc60"/>
<rect x="481.0" y="226.0" width="9.5" height="9.5" rx="1.5" fill="#f2cc60"/>
<rect x="525.0" y="226.0" width="9.5" height="9.5" rx="1.5" fill="#f2cc60"/>
<rect x="481.0" y="237.0" width="9.5" height="9.5" rx="1.5" fill="#f2cc60"/>
<rect x="492.0" y="237.0" width="9.5" height="9.5" rx="1.5" fill="#f2cc60"/>
<rect x="503.0" y="237.0" width="9.5" height="9.5" rx="1.5" fill="#f2cc60"/>
<rect x="514.0" y="237.0" width="9.5" height="9.5" rx="1.5" fill="#f2cc60"/>
<rect x="525.0" y="237.0" width="9.5" height="9.5" rx="1.5" fill="#f2cc60"/>
<rect x="481.0" y="248.0" width="9.5" height="9.5" rx="1.5" fill="#f2cc60"/>
<rect x="525.0" y="248.0" width="9.5" height="9.5" rx="1.5" fill="#f2cc60"/>
<rect x="481.0" y="259.0" width="9.5" height="9.5" rx="1.5" fill="#f2cc60"/>
<rect x="525.0" y="259.0" width="9.5" height="9.5" rx="1.5" fill="#f2cc60"/>
<text x="319.0" y="294" text-anchor="middle" font-size="13" letter-spacing="3" fill="#e3b341">AI ENGINEER · GENAI · AI AGENTS</text>
<line x1="40" y1="314" x2="598" y2="314" stroke="#30363d" stroke-width="1"/>
<text x="40" y="344" xml:space="preserve"><tspan fill="#d29922">[ </tspan><tspan fill="#ffdf5d" font-weight="700">system</tspan><tspan fill="#d29922"> ]</tspan></text>
<text x="40" y="366" fill="#e3b341">role</text>
<text x="150" y="366" fill="#e6edf3">AI Engineer · GenAI · AI Agents</text>
<text x="40" y="388" fill="#e3b341">education</text>
<text x="150" y="388" fill="#e6edf3">B.E. Electronics &amp; CS · Honors in AI &amp; ML</text>
<text x="40" y="410" fill="#e3b341">location</text>
<text x="150" y="410" fill="#e6edf3">Mumbai, India</text>
<text x="40" y="442" xml:space="preserve"><tspan fill="#d29922">[ </tspan><tspan fill="#ffdf5d" font-weight="700">experience</tspan><tspan fill="#d29922"> ]</tspan></text>
<text x="40" y="464" fill="#e3b341">2026</text>
<text x="150" y="464" fill="#e6edf3">Junior AI Engineer · Softgainz Technologies</text>
<text x="40" y="486" fill="#e3b341">2025</text>
<text x="150" y="486" fill="#e6edf3">Elite Projects Analyst · Hudl</text>
<text x="40" y="518" xml:space="preserve"><tspan fill="#d29922">[ </tspan><tspan fill="#ffdf5d" font-weight="700">ai</tspan><tspan fill="#d29922"> ]</tspan></text>
<text x="40" y="540" fill="#e3b341">genai</text>
<text x="150" y="540" fill="#e6edf3">OpenAI · Gemini · LangChain · LangGraph</text>
<text x="40" y="562" fill="#e3b341">rag</text>
<text x="150" y="562" fill="#e6edf3">Embeddings · FAISS · Qdrant · ChromaDB</text>
<text x="40" y="584" fill="#e3b341">agents</text>
<text x="150" y="584" fill="#e6edf3">Multi-agent workflows · E2B · Guardrails</text>
<text x="40" y="616" xml:space="preserve"><tspan fill="#d29922">[ </tspan><tspan fill="#ffdf5d" font-weight="700">dev</tspan><tspan fill="#d29922"> ]</tspan></text>
<text x="40" y="638" fill="#e3b341">langs</text>
<text x="150" y="638" fill="#e6edf3">Python · SQL · JavaScript</text>
<text x="40" y="660" fill="#e3b341">backend</text>
<text x="150" y="660" fill="#e6edf3">FastAPI · Node.js · Docker · GitHub Actions</text>
<text x="40" y="682" fill="#e3b341">ml</text>
<text x="150" y="682" fill="#e6edf3">Scikit-learn · PyTorch · XGBoost · LightGBM</text>
<text x="40" y="704" fill="#e3b341">mlops</text>
<text x="150" y="704" fill="#e6edf3">MLflow · Feast · Evidently</text>
<text x="40" y="726" fill="#e3b341">vision</text>
<text x="150" y="726" fill="#e6edf3">OpenCV · YOLOv8 · ByteTrack · ONNX · TensorRT</text>
<text x="40" y="758" xml:space="preserve"><tspan fill="#d29922">[ </tspan><tspan fill="#ffdf5d" font-weight="700">now</tspan><tspan fill="#d29922"> ]</tspan></text>
<text x="40" y="780" fill="#e3b341">building</text>
<text x="150" y="780" fill="#e6edf3">AI agents · RAG apps · automation</text>
<text x="40" y="802" fill="#e3b341">learning</text>
<text x="150" y="802" fill="#e6edf3">Agentic AI · MLOps at scale</text>
<text x="40" y="824" fill="#e3b341">open to</text>
<text x="150" y="824" fill="#e6edf3">AI Engineer / GenAI roles</text>
<text x="40" y="856" xml:space="preserve"><tspan fill="#d29922">[ </tspan><tspan fill="#ffdf5d" font-weight="700">papers</tspan><tspan fill="#d29922"> ]</tspan></text>
<text x="40" y="878" fill="#e3b341">published</text>
<text x="150" y="878" fill="#e6edf3">IRJAEM · IJCRT · IEEE</text>
<text x="40" y="910" xml:space="preserve"><tspan fill="#d29922">[ </tspan><tspan fill="#ffdf5d" font-weight="700">contact</tspan><tspan fill="#d29922"> ]</tspan></text>
<text x="40" y="932" fill="#e3b341">mail</text>
<text x="150" y="932" fill="#e6edf3">ashish.cp.mishra@gmail.com</text>
<text x="40" y="954" fill="#e3b341">linkedin</text>
<text x="150" y="954" fill="#e6edf3">in/aashishh1</text>
<text x="40" y="976" fill="#e3b341">github</text>
<text x="150" y="976" fill="#e6edf3">github.com/Aashishh1</text>
</svg>
